<svg id="cutout_applied_white" data-name="cutout applied white" xmlns="http://www.w3.org/2000/svg" viewBox="0 0 1024 1008.03"><defs><style>.cls-1{fill:#fff;fill-rule:evenodd;}</style></defs><path class="cls-1" d="M512,0C229.23,0,0,229.23,0,512,0,704.33,106,871.88,262.85,959.39a54.91,54.91,0,0,0,18.56-14.16c14.86-17.94,18.4-48.21,19.51-94.42.2-8.48.7-18.5,1.28-30.11,2.68-53.8,7.13-143.05-14.53-213.82-15-9.82-59.19-44.61-98.29-134.08a257.74,257.74,0,0,1-18-143.95c6-37.25,17.87-61.13,18.38-62.13a13.57,13.57,0,0,1,14.19-7.3c24,3.71,47.58,13.38,70.08,28.75,17.63,12.06,34.64,27.63,50.56,46.28a346.41,346.41,0,0,1,32.58,45.28l1.11-1q-1.07-4.68-2.06-9.64c-4.7-23.6-8.1-52-10.12-84.43-3.38-54.65-1.69-101.54-1.62-103.51a21,21,0,1,1,42,1.57c0,.46-1.61,44.81,1.36,95.82a45.43,45.43,0,0,0,12-20.19,21,21,0,0,1,41.25,8.22c-.37,1.86-8.7,41.23-49.1,59.45,1.37,11.34,2.91,21.33,4.55,30.13,17.54-7.33,40.88-14.45,71.93-20.32-4.88-22.84-8.83-50-11.88-81.78-5.23-54.38-5.66-101.12-5.68-103.08a21,21,0,0,1,20.86-21.2h.17a21,21,0,0,1,21,20.86c0,.47.44,47.11,5.51,99.69q.58,6,1.19,11.58a46.09,46.09,0,0,0,18.31-25.42,21,21,0,1,1,41.25,8.23c-.39,1.93-9.31,44.1-53.57,61.33,1.51,8.94,3.07,16.93,4.66,24.06a225.43,225.43,0,0,1,34.65.31c6.82-14.9,39.55-79.23,100.68-89.94a13.56,13.56,0,0,1,14,6.41c.47.78,11.55,19.51,17.29,47.69,7.06,34.61,3.06,68.74-11.52,99.25,21.22,25.57,34.59,53.77,44.18,74,4.13,8.7,9.12,19.25,12.23,23.45,16.31-1.5,67.54-13.23,139.64-32a31.78,31.78,0,0,1,27.13,4.89c9.11,6.62,14.78,17.72,15.55,30.46,2.34,38.58-.44,73.62-8.24,104.15-9.27,36.24-25.91,67.52-49.48,93-25.12,27.12-58.69,48.23-99.76,62.74-34.87,12.32-76,20.17-122.64,23.44a13.43,13.43,0,0,1-2,.23l-2.76.09q-16.53,1-34,1.32c-3.86.06-10.75,6.33-16.78,20-7,15.83-10.91,37-10.74,58.07.2,24.47,1.14,137.5,81.65,150.43C860.52,951.41,1024,750.8,1024,512,1024,229.23,794.77,0,512,0Z" transform="translate(0 0)"/></svg>