<?xml version="1.0" encoding="utf-8"?>
<!-- Generator: Adobe Illustrator 24.1.1, SVG Export Plug-In . SVG Version: 6.00 Build 0)  -->
<svg version="1.1" id="Layer_1" xmlns="http://www.w3.org/2000/svg" xmlns:xlink="http://www.w3.org/1999/xlink" x="0px" y="0px"
	 viewBox="0 0 80 80" style="enable-background:new 0 0 80 80;" xml:space="preserve">
<style type="text/css">
	.st0{fill:#001E36;}
	.st1{fill:#31A8FF;}
</style>
<g id="Layer_2_1_">
	<g id="Surfaces">
		<g id="Photo_Surface">
			<g id="Outline_no_shadow">
				<path class="st0" d="M14.2,0h51.7C73.7,0,80,6.5,80,14.5v50.9c0,8-6.3,14.5-14.2,14.5H14.2C6.3,80,0,73.5,0,65.5V14.5
					C0,6.5,6.3,0,14.2,0z"/>
			</g>
		</g>
	</g>
	<g id="Outlined_Mnemonics_Logos">
		<g id="Ps">
			<path class="st1" d="M18,55.7V21.4c0-0.2,0.1-0.4,0.3-0.4c0.6,0,1.1,0,1.9,0c0.8,0,1.6,0,2.5-0.1c0.9,0,1.9,0,2.9-0.1
				c1,0,2,0,3,0c2.7,0,5,0.3,6.9,1c1.7,0.6,3.2,1.5,4.5,2.7c1.1,1.1,1.9,2.4,2.4,3.8c0.5,1.4,0.8,2.8,0.8,4.3c0,2.9-0.7,5.2-2,7.1
				c-1.3,1.9-3.2,3.3-5.4,4.1c-2.3,0.8-4.8,1.1-7.5,1.1c-0.8,0-1.3,0-1.7,0c-0.3,0-0.8,0-1.4,0v10.7c0,0.2-0.1,0.4-0.4,0.5
				c0,0-0.1,0-0.1,0h-6.3C18.1,56.1,18,56,18,55.7z M25.3,27.5v11.2c0.5,0,0.9,0.1,1.3,0.1h1.8c1.3,0,2.6-0.2,3.8-0.6
				c1.1-0.3,2-0.9,2.7-1.8c0.7-0.8,1-2,1-3.4c0-1-0.2-2.1-0.8-3c-0.6-0.9-1.4-1.5-2.3-1.9c-1.2-0.5-2.6-0.7-3.9-0.7
				c-0.9,0-1.6,0-2.3,0C26,27.4,25.5,27.4,25.3,27.5L25.3,27.5z"/>
			<path class="st1" d="M64,36.6c-1-0.5-2.1-0.9-3.2-1.1c-1.2-0.3-2.5-0.4-3.7-0.4c-0.7,0-1.4,0.1-2,0.2c-0.4,0.1-0.8,0.3-1,0.7
				c-0.2,0.3-0.3,0.6-0.3,0.9c0,0.3,0.1,0.6,0.3,0.9c0.3,0.4,0.7,0.7,1.1,0.9c0.8,0.4,1.6,0.8,2.4,1.1c1.8,0.6,3.5,1.4,5.1,2.4
				c1.1,0.7,2,1.6,2.6,2.8c0.5,1.1,0.8,2.2,0.8,3.4c0,1.6-0.4,3.1-1.3,4.4c-0.9,1.3-2.2,2.4-3.7,3c-1.6,0.7-3.6,1.1-6,1.1
				c-1.5,0-3-0.1-4.5-0.4c-1.2-0.2-2.3-0.6-3.4-1.1c-0.2-0.1-0.4-0.4-0.4-0.6v-5.8c0-0.1,0-0.2,0.1-0.3s0.2,0,0.3,0
				c1.3,0.8,2.7,1.3,4.1,1.6c1.3,0.3,2.6,0.5,3.9,0.5c1.3,0,2.2-0.2,2.8-0.5c0.5-0.2,0.9-0.8,0.9-1.4c0-0.5-0.3-0.9-0.8-1.3
				c-0.5-0.4-1.6-0.9-3.3-1.6c-1.7-0.6-3.3-1.4-4.7-2.4c-1-0.7-1.9-1.7-2.5-2.8c-0.5-1.1-0.8-2.2-0.8-3.4c0-1.4,0.4-2.8,1.1-4
				c0.8-1.3,2.1-2.4,3.5-3.1c1.6-0.8,3.5-1.2,5.9-1.2c1.4,0,2.8,0.1,4.1,0.3c1,0.1,2,0.4,2.9,0.8c0.1,0,0.3,0.2,0.3,0.3
				c0,0.1,0.1,0.3,0.1,0.4v5.4c0,0.1-0.1,0.3-0.2,0.3C64.3,36.7,64.1,36.7,64,36.6z"/>
		</g>
	</g>
</g>
</svg>
