<?xml version="1.0" encoding="utf-8"?>
<!-- Generator: Adobe Illustrator 24.1.1, SVG Export Plug-In . SVG Version: 6.00 Build 0)  -->
<svg version="1.1" id="Layer_1" xmlns="http://www.w3.org/2000/svg" xmlns:xlink="http://www.w3.org/1999/xlink" x="0px" y="0px"
	 viewBox="0 0 80 80" style="enable-background:new 0 0 80 80;" xml:space="preserve">
<style type="text/css">
	.st0{fill:#330000;}
	.st1{fill:#FF9A00;}
</style>
<path class="st0" d="M14.2,0h51.7C73.7,0,80,6.5,80,14.5v50.9c0,8-6.3,14.5-14.2,14.5H14.2C6.3,80,0,73.5,0,65.5V14.5
	C0,6.5,6.3,0,14.2,0z"/>
<g>
	<path class="st1" d="M38.7,46.7H26.3l-2.5,7.8c-0.1,0.3-0.3,0.5-0.6,0.5h-6.3c-0.4,0-0.5-0.2-0.4-0.6l10.7-30.9
		c0.1-0.3,0.2-0.7,0.3-1.1c0.1-0.7,0.2-1.4,0.2-2.2c0-0.2,0.1-0.3,0.3-0.4h8.6c0.3,0,0.4,0.1,0.4,0.3l12.2,34.3
		c0.1,0.4,0,0.5-0.3,0.5h-7c-0.2,0-0.5-0.1-0.5-0.4L38.7,46.7z M28.2,39.9h8.5c-0.2-0.7-0.5-1.5-0.8-2.4c-0.3-0.9-0.6-1.9-0.9-2.9
		c-0.3-1-0.6-2-1-3.1c-0.3-1-0.6-2-0.9-3c-0.3-0.9-0.5-1.8-0.7-2.6h-0.1c-0.3,1.4-0.7,2.9-1.1,4.3c-0.5,1.6-1,3.3-1.5,4.9
		C29.2,36.9,28.7,38.5,28.2,39.9L28.2,39.9z M56.7,25.7c-1.1,0-2.2-0.4-3-1.2c-0.8-0.8-1.2-1.9-1.1-3.1c0-1.1,0.4-2.2,1.2-3
		s1.9-1.2,3-1.2c1.3,0,2.3,0.4,3,1.2c0.7,0.8,1.1,1.9,1.1,3c0,1.1-0.4,2.2-1.2,3.1C58.9,25.3,57.8,25.7,56.7,25.7L56.7,25.7z
		 M52.9,54.6V28.9c0-0.3,0.1-0.5,0.4-0.5H60c0.3,0,0.4,0.2,0.4,0.5v25.7c0,0.4-0.1,0.5-0.4,0.5h-6.5C53.1,55.1,52.9,54.9,52.9,54.6z
		"/>
</g>
</svg>
