<?xml version="1.0" encoding="utf-8"?>
<!-- Generator: Adobe Illustrator 24.1.1, SVG Export Plug-In . SVG Version: 6.00 Build 0)  -->
<svg version="1.1" id="katman_1" xmlns="http://www.w3.org/2000/svg" xmlns:xlink="http://www.w3.org/1999/xlink" x="0px" y="0px"
	 viewBox="0 0 80 80" style="enable-background:new 0 0 80 80;" xml:space="preserve">
<style type="text/css">
	.st0{fill:#00005B;}
	.st1{fill:#9999FF;}
</style>
<g transform="matrix(1.00000012 0 0 1.00000012 159.999963 83)">
	<path class="st0" d="M-145.8-83h51.7c7.8,0,14.2,6.5,14.2,14.5v50.9C-80-9.5-86.3-3-94.2-3h-51.7c-7.8,0-14.2-6.5-14.2-14.5v-50.9
		C-160-76.5-153.7-83-145.8-83z"/>
	<g>
		<path class="st1" d="M-141-27.3v-34.3c0-0.2,0.1-0.4,0.3-0.4c0.6,0,1.1,0,1.9,0c0.8,0,1.6,0,2.5-0.1c0.9,0,1.9,0,2.9-0.1
			c1,0,2,0,3,0c2.7,0,5,0.3,6.9,1c1.7,0.6,3.2,1.5,4.5,2.7c1.1,1.1,1.9,2.4,2.4,3.8c0.5,1.4,0.8,2.8,0.8,4.3c0,2.9-0.7,5.2-2,7.1
			c-1.3,1.9-3.2,3.3-5.4,4.1c-2.3,0.8-4.8,1.1-7.5,1.1c-0.8,0-1.3,0-1.7,0c-0.3,0-0.8,0-1.4,0v10.7c0,0.2-0.1,0.4-0.4,0.5h-6.5
			C-140.9-26.9-141-27-141-27.3L-141-27.3z M-133.7-55.5v11.2c0.5,0,0.9,0.1,1.3,0.1h1.8c1.3,0,2.6-0.2,3.8-0.6
			c1.1-0.3,2-0.9,2.7-1.8c0.7-0.8,1-2,1-3.4c0-1-0.2-2.1-0.8-3c-0.6-0.9-1.4-1.5-2.3-1.9c-1.2-0.5-2.6-0.7-3.9-0.7
			c-0.9,0-1.6,0-2.3,0C-133-55.6-133.5-55.6-133.7-55.5L-133.7-55.5z"/>
		<path class="st1" d="M-111.2-53.6h5.8c0.3,0,0.6,0.2,0.7,0.5c0.1,0.3,0.2,0.5,0.2,0.8c0.1,0.3,0.1,0.7,0.2,1
			c0,0.4,0.1,0.8,0.1,1.2c1-1.2,2.2-2.1,3.6-2.9c1.5-0.9,3.3-1.3,5.1-1.3c0.2,0,0.4,0.1,0.5,0.4v6.6c0,0.3-0.2,0.4-0.5,0.4
			c-1.2,0-2.4,0.1-3.6,0.3c-1,0.2-1.9,0.5-2.8,0.9c-0.6,0.3-1.2,0.7-1.7,1.2v17c0,0.3-0.1,0.5-0.4,0.5h-6.6c-0.3,0-0.5-0.1-0.5-0.4
			v-18.6c0-0.8,0-1.6,0-2.5s0-1.7-0.1-2.6c0-0.8-0.1-1.5-0.1-2.3c0-0.2,0.1-0.3,0.2-0.4C-111.2-53.6-111.2-53.6-111.2-53.6
			L-111.2-53.6z"/>
	</g>
</g>
</svg>
