<?xml version="1.0" encoding="utf-8"?>
<!-- Generator: Adobe Illustrator 24.1.1, SVG Export Plug-In . SVG Version: 6.00 Build 0)  -->
<svg version="1.1" id="Layer_1" xmlns="http://www.w3.org/2000/svg" xmlns:xlink="http://www.w3.org/1999/xlink" x="0px" y="0px"
	 viewBox="0 0 80 80" style="enable-background:new 0 0 80 80;" xml:space="preserve">
<style type="text/css">
	.st0{fill:#49021F;}
	.st1{fill:#FF3366;}
</style>
<g id="InDesign" transform="translate(2511 308)">
	<path id="_18" class="st0" d="M-2498.5-308h55c6.9,0,12.5,5.6,12.5,12.5v55c0,6.9-5.6,12.5-12.5,12.5h-55
		c-6.9,0-12.5-5.6-12.5-12.5v-55C-2511-302.4-2505.4-308-2498.5-308z"/>
	<path id="_34" class="st1" d="M-2482.6-284.3v33.1c0,0.4-0.2,0.5-0.5,0.5h-6c-0.3,0-0.4-0.2-0.4-0.5v-33.1c0-0.3,0.2-0.4,0.5-0.4h6
		C-2482.8-284.8-2482.6-284.6-2482.6-284.3C-2482.6-284.4-2482.6-284.4-2482.6-284.3L-2482.6-284.3z"/>
	<path id="_35" class="st1" d="M-2462.9-249.9c-2.4,0-4.8-0.5-7.1-1.5c-2.1-1-3.8-2.5-4.9-4.5c-1.3-2.3-1.9-4.9-1.8-7.5
		c0-2.4,0.6-4.8,1.8-6.9c1.2-2.1,3-3.9,5.2-5.1c2.6-1.3,5.4-2,8.3-1.9c0.2,0,0.4,0,0.7,0c0.3,0,0.9,0,1.3,0.1v-10
		c0-0.2,0.1-0.4,0.3-0.4h6.1c0.2,0,0.3,0.1,0.3,0.2c0,0,0,0.1,0,0.1v30.8c0,0.6,0,1.3,0.1,2c0.1,0.7,0.1,1.3,0.1,1.9
		c0,0.2-0.1,0.4-0.3,0.5c-1.6,0.7-3.3,1.2-5.1,1.6C-2459.5-250.1-2461.2-250-2462.9-249.9z M-2459.4-256.5v-14.4
		c-0.4-0.1-0.8-0.1-1.1-0.2c-0.4,0-0.7-0.1-1.1-0.1c-1.3,0-2.6,0.3-3.7,0.8c-2.5,1.2-4,3.8-3.9,6.6c0,1.1,0.2,2.3,0.5,3.4
		c0.3,0.9,0.8,1.7,1.5,2.3c0.6,0.6,1.4,1.1,2.2,1.3c0.9,0.3,1.8,0.4,2.7,0.4c0.5,0,1,0,1.4-0.1
		C-2460.4-256.3-2459.9-256.4-2459.4-256.5L-2459.4-256.5z"/>
</g>
</svg>
